{
	"patcher" : 	{
		"fileversion" : 1,
		"appversion" : 		{
			"major" : 6,
			"minor" : 1,
			"revision" : 8,
			"architecture" : "x64"
		}
,
		"rect" : [ 20.0, 59.0, 793.0, 661.0 ],
		"bglocked" : 0,
		"openinpresentation" : 0,
		"default_fontsize" : 12.0,
		"default_fontface" : 0,
		"default_fontname" : "Anonymous Pro",
		"gridonopen" : 0,
		"gridsize" : [ 15.0, 5.0 ],
		"gridsnaponopen" : 0,
		"statusbarvisible" : 0,
		"toolbarvisible" : 1,
		"boxanimatetime" : 200,
		"imprint" : 0,
		"enablehscroll" : 1,
		"enablevscroll" : 1,
		"devicewidth" : 0.0,
		"description" : "",
		"digest" : "",
		"tags" : "",
		"boxes" : [ 			{
				"box" : 				{
					"fontname" : "Gill Sans",
					"fontsize" : 20.0,
					"frgb" : 0.0,
					"id" : "obj-19",
					"linecount" : 2,
					"maxclass" : "comment",
					"numinlets" : 1,
					"numoutlets" : 0,
					"patching_rect" : [ 75.0, 20.0, 295.0, 52.0 ],
					"text" : "Granulator.\nNick Rothwell, nick@cassiel.com",
					"textcolor" : [ 0.901961, 0.901961, 0.901961, 1.0 ]
				}

			}
, 			{
				"box" : 				{
					"fontname" : "Anonymous Pro",
					"fontsize" : 12.0,
					"id" : "obj-16",
					"maxclass" : "newobj",
					"numinlets" : 2,
					"numoutlets" : 2,
					"outlettype" : [ "signal", "signal" ],
					"patching_rect" : [ 285.0, 525.0, 50.0, 18.0 ],
					"text" : "cpPan~"
				}

			}
, 			{
				"box" : 				{
					"fontname" : "Anonymous Pro",
					"fontsize" : 12.0,
					"id" : "obj-17",
					"maxclass" : "newobj",
					"numinlets" : 2,
					"numoutlets" : 2,
					"outlettype" : [ "signal", "signal" ],
					"patching_rect" : [ 225.0, 525.0, 50.0, 18.0 ],
					"text" : "cpPan~"
				}

			}
, 			{
				"box" : 				{
					"fontname" : "Anonymous Pro",
					"fontsize" : 12.0,
					"id" : "obj-15",
					"maxclass" : "flonum",
					"numinlets" : 1,
					"numoutlets" : 2,
					"outlettype" : [ "float", "bang" ],
					"parameter_enable" : 0,
					"patching_rect" : [ 270.0, 475.0, 50.0, 18.0 ]
				}

			}
, 			{
				"box" : 				{
					"fontname" : "Anonymous Pro",
					"fontsize" : 12.0,
					"id" : "obj-13",
					"maxclass" : "newobj",
					"numinlets" : 2,
					"numoutlets" : 2,
					"outlettype" : [ "signal", "signal" ],
					"patching_rect" : [ 150.0, 525.0, 50.0, 18.0 ],
					"text" : "cpPan~"
				}

			}
, 			{
				"box" : 				{
					"fontname" : "Anonymous Pro",
					"fontsize" : 12.0,
					"id" : "obj-12",
					"maxclass" : "newobj",
					"numinlets" : 2,
					"numoutlets" : 2,
					"outlettype" : [ "signal", "signal" ],
					"patching_rect" : [ 90.0, 525.0, 50.0, 18.0 ],
					"text" : "cpPan~"
				}

			}
, 			{
				"box" : 				{
					"fontname" : "Anonymous Pro",
					"fontsize" : 12.0,
					"id" : "obj-11",
					"maxclass" : "newobj",
					"numinlets" : 4,
					"numoutlets" : 4,
					"outlettype" : [ "", "", "", "" ],
					"patching_rect" : [ 630.0, 45.0, 115.0, 18.0 ],
					"text" : "route /mix /A /B"
				}

			}
, 			{
				"box" : 				{
					"fontname" : "Anonymous Pro",
					"fontsize" : 12.0,
					"id" : "obj-10",
					"maxclass" : "newobj",
					"numinlets" : 1,
					"numoutlets" : 1,
					"outlettype" : [ "" ],
					"patching_rect" : [ 630.0, 20.0, 109.0, 18.0 ],
					"text" : "udpreceive 4040"
				}

			}
, 			{
				"box" : 				{
					"fontname" : "Anonymous Pro",
					"fontsize" : 12.0,
					"id" : "obj-3",
					"maxclass" : "newobj",
					"numinlets" : 0,
					"numoutlets" : 0,
					"patching_rect" : [ 120.0, 450.0, 83.0, 18.0 ],
					"text" : "spl.Hanning"
				}

			}
, 			{
				"box" : 				{
					"id" : "obj-5",
					"maxclass" : "ezdac~",
					"numinlets" : 2,
					"numoutlets" : 0,
					"patching_rect" : [ 120.0, 595.0, 45.0, 45.0 ]
				}

			}
, 			{
				"box" : 				{
					"args" : [ "B" ],
					"id" : "obj-2",
					"maxclass" : "bpatcher",
					"name" : "spl.Grainer.maxpat",
					"numinlets" : 2,
					"numoutlets" : 2,
					"offset" : [ -15.0, -15.0 ],
					"outlettype" : [ "signal", "signal" ],
					"patching_rect" : [ 60.0, 270.0, 510.0, 170.0 ],
					"varname" : "spl.Grainer[1]"
				}

			}
, 			{
				"box" : 				{
					"args" : [ "A" ],
					"id" : "obj-1",
					"maxclass" : "bpatcher",
					"name" : "spl.Grainer.maxpat",
					"numinlets" : 2,
					"numoutlets" : 2,
					"offset" : [ -15.0, -15.0 ],
					"outlettype" : [ "signal", "signal" ],
					"patching_rect" : [ 60.0, 90.0, 510.0, 170.0 ],
					"varname" : "spl.Grainer"
				}

			}
, 			{
				"box" : 				{
					"id" : "obj-20",
					"maxclass" : "panel",
					"numinlets" : 1,
					"numoutlets" : 0,
					"patching_rect" : [ 60.0, 15.0, 510.0, 60.0 ]
				}

			}
 ],
		"lines" : [ 			{
				"patchline" : 				{
					"destination" : [ "obj-12", 0 ],
					"disabled" : 0,
					"hidden" : 0,
					"source" : [ "obj-1", 0 ]
				}

			}
, 			{
				"patchline" : 				{
					"destination" : [ "obj-13", 0 ],
					"disabled" : 0,
					"hidden" : 0,
					"source" : [ "obj-1", 1 ]
				}

			}
, 			{
				"patchline" : 				{
					"destination" : [ "obj-11", 0 ],
					"disabled" : 0,
					"hidden" : 0,
					"source" : [ "obj-10", 0 ]
				}

			}
, 			{
				"patchline" : 				{
					"destination" : [ "obj-1", 1 ],
					"disabled" : 0,
					"hidden" : 0,
					"source" : [ "obj-11", 1 ]
				}

			}
, 			{
				"patchline" : 				{
					"destination" : [ "obj-15", 0 ],
					"disabled" : 0,
					"hidden" : 0,
					"source" : [ "obj-11", 0 ]
				}

			}
, 			{
				"patchline" : 				{
					"destination" : [ "obj-2", 1 ],
					"disabled" : 0,
					"hidden" : 0,
					"source" : [ "obj-11", 2 ]
				}

			}
, 			{
				"patchline" : 				{
					"destination" : [ "obj-5", 0 ],
					"disabled" : 0,
					"hidden" : 0,
					"source" : [ "obj-12", 0 ]
				}

			}
, 			{
				"patchline" : 				{
					"destination" : [ "obj-5", 1 ],
					"disabled" : 0,
					"hidden" : 0,
					"source" : [ "obj-13", 0 ]
				}

			}
, 			{
				"patchline" : 				{
					"destination" : [ "obj-12", 1 ],
					"disabled" : 0,
					"hidden" : 0,
					"source" : [ "obj-15", 0 ]
				}

			}
, 			{
				"patchline" : 				{
					"destination" : [ "obj-13", 1 ],
					"disabled" : 0,
					"hidden" : 0,
					"source" : [ "obj-15", 0 ]
				}

			}
, 			{
				"patchline" : 				{
					"destination" : [ "obj-16", 1 ],
					"disabled" : 0,
					"hidden" : 0,
					"source" : [ "obj-15", 0 ]
				}

			}
, 			{
				"patchline" : 				{
					"destination" : [ "obj-17", 1 ],
					"disabled" : 0,
					"hidden" : 0,
					"source" : [ "obj-15", 0 ]
				}

			}
, 			{
				"patchline" : 				{
					"destination" : [ "obj-5", 1 ],
					"disabled" : 0,
					"hidden" : 0,
					"source" : [ "obj-16", 1 ]
				}

			}
, 			{
				"patchline" : 				{
					"destination" : [ "obj-5", 0 ],
					"disabled" : 0,
					"hidden" : 0,
					"source" : [ "obj-17", 1 ]
				}

			}
, 			{
				"patchline" : 				{
					"destination" : [ "obj-16", 0 ],
					"disabled" : 0,
					"hidden" : 0,
					"source" : [ "obj-2", 1 ]
				}

			}
, 			{
				"patchline" : 				{
					"destination" : [ "obj-17", 0 ],
					"disabled" : 0,
					"hidden" : 0,
					"source" : [ "obj-2", 0 ]
				}

			}
 ],
		"dependency_cache" : [ 			{
				"name" : "spl.Grainer.maxpat",
				"bootpath" : "/Users/nick/GITHUB/pixelpusher/live-theatre/maxmsp/live-theatre/patchers",
				"patcherrelativepath" : ".",
				"type" : "JSON",
				"implicit" : 1
			}
, 			{
				"name" : "spl.GrainVoice.maxpat",
				"bootpath" : "/Users/nick/GITHUB/pixelpusher/live-theatre/maxmsp/live-theatre/patchers",
				"patcherrelativepath" : ".",
				"type" : "JSON",
				"implicit" : 1
			}
, 			{
				"name" : "spl.RandomRange.maxpat",
				"bootpath" : "/Users/nick/GITHUB/pixelpusher/live-theatre/maxmsp/live-theatre/patchers",
				"patcherrelativepath" : ".",
				"type" : "JSON",
				"implicit" : 1
			}
, 			{
				"name" : "cpPan~.maxpat",
				"bootpath" : "/Users/nick/GITHUB/pixelpusher/live-theatre/maxmsp/live-theatre/patchers",
				"patcherrelativepath" : ".",
				"type" : "JSON",
				"implicit" : 1
			}
, 			{
				"name" : "spl.ProbSpectrum.maxpat",
				"bootpath" : "/Users/nick/GITHUB/pixelpusher/live-theatre/maxmsp/live-theatre/patchers",
				"patcherrelativepath" : ".",
				"type" : "JSON",
				"implicit" : 1
			}
, 			{
				"name" : "lib.TextToggleUbu.mxt",
				"bootpath" : "/Users/nick/GITHUB/pixelpusher/live-theatre/maxmsp/live-theatre/patchers",
				"patcherrelativepath" : ".",
				"type" : "TEXT",
				"implicit" : 1
			}
, 			{
				"name" : "spl.Hanning.maxpat",
				"bootpath" : "/Users/nick/CASSIEL/maxsearch/senses-places",
				"patcherrelativepath" : "../../../../../../CASSIEL/maxsearch/senses-places",
				"type" : "JSON",
				"implicit" : 1
			}
 ]
	}

}
